<?xml version="1.0" encoding="UTF-8"?>
<svg width="415px" height="354px" viewBox="0 0 415 354" version="1.1" xmlns="http://www.w3.org/2000/svg" xmlns:xlink="http://www.w3.org/1999/xlink">
    <!-- Generator: Sketch 51.3 (57544) - http://www.bohemiancoding.com/sketch -->
    <title>cart</title>
    <desc>Created with Sketch.</desc>
    <defs></defs>
    <g id="Page-1" stroke="none" stroke-width="1" fill="none" fill-rule="evenodd">
        <g id="cart" fill="#000000" fill-rule="nonzero">
            <path d="M7.410156,14.0625 L50.113281,14.0625 C64.132812,14.007812 76.09375,24.191406 78.269531,38.042969 L112.0625,291.46875 C112.070312,291.523438 112.078125,291.582031 112.085938,291.636719 C115.28125,312.339844 133.140625,327.59375 154.085938,327.511719 L159.960938,327.511719 C162.539062,342.707031 175.703125,353.824219 191.117188,353.824219 C206.527344,353.824219 219.691406,342.707031 222.269531,327.511719 L280.742188,327.511719 C283.449219,343.375 297.640625,354.671875 313.710938,353.753906 C329.777344,352.832031 342.585938,339.988281 343.464844,323.917969 C344.34375,307.847656 333.007812,293.683594 317.136719,291.019531 C301.265625,288.351562 285.925781,298.035156 281.503906,313.511719 L221.503906,313.511719 C217.636719,299.9375 205.230469,290.578125 191.117188,290.578125 C177.003906,290.578125 164.597656,299.9375 160.730469,313.511719 L154.089844,313.511719 C140.066406,313.566406 128.105469,303.378906 125.929688,289.527344 L115.746094,213.144531 L334.148438,213.144531 C352.265625,213.136719 368.386719,201.660156 374.328125,184.546875 L414.027344,69.96875 C414.769531,67.828125 414.429688,65.460938 413.117188,63.617188 C411.800781,61.769531 409.675781,60.675781 407.410156,60.675781 L95.410156,60.675781 L92.132812,36.101562 C92.125,36.042969 92.117188,35.988281 92.105469,35.929688 C88.914062,15.226562 71.054688,-0.027344 50.105469,0.058594 L7.410156,0.058594 C3.546875,0.058594 0.410156,3.191406 0.410156,7.058594 C0.410156,10.925781 3.546875,14.058594 7.410156,14.058594 L7.410156,14.0625 Z M311.890625,304.582031 C321.617188,304.582031 329.5,312.464844 329.5,322.191406 C329.5,331.917969 321.617188,339.804688 311.890625,339.804688 C302.164062,339.804688 294.277344,331.917969 294.277344,322.191406 C294.289062,312.472656 302.167969,304.59375 311.890625,304.582031 Z M191.109375,304.582031 C200.835938,304.582031 208.722656,312.464844 208.722656,322.191406 C208.722656,331.917969 200.839844,339.804688 191.113281,339.804688 C181.386719,339.804688 173.5,331.917969 173.5,322.191406 C173.511719,312.472656 181.390625,304.59375 191.113281,304.582031 L191.109375,304.582031 Z M397.578125,74.675781 L361.097656,179.960938 C357.117188,191.441406 346.300781,199.140625 334.148438,199.144531 L113.871094,199.144531 L97.273438,74.675781 L397.578125,74.675781 Z" id="Shape"></path>
        </g>
    </g>
</svg>